<?xml version="1.0" encoding="UTF-8"?>
<svg id="Layer_1" xmlns="http://www.w3.org/2000/svg" version="1.1" viewBox="0 0 171 170.6">
  <!-- Generator: Adobe Illustrator 29.5.1, SVG Export Plug-In . SVG Version: 2.1.0 Build 141)  -->
  <defs>
    <style>
      .st0 {
        fill: #0a3959;
      }

      .st1 {
        fill: #5abe93;
      }

      .st2 {
        fill: #fff;
      }
    </style>
  </defs>
  <circle class="st2" cx="85.5" cy="85.3" r="31.7"/>
  <g>
    <g>
      <path class="st0" d="M84.1,85.3h0c-.2-.7-.4-1.3-.6-2,.7.2,1.3.4,2,.6.4,0,.8.2,1.1.3.1.4.2.7.3,1.1.2.7.4,1.4.6,2-.7-.2-1.3-.4-2-.6-.7.2-1.3.4-2,.6.2-.7.4-1.3.6-2Z"/>
      <path class="st1" d="M88.1,113.2c-.6,3.2-1.5,6.4-2.6,9.5h0c-.1.4-.2.7-.4,1-3.4,9.3-9.1,18.3-16.8,25.9-17.1,17.1-40.2,23.9-60.2,19.7-1.8-.4-3.6-.8-5.3-1.4-.6-1.8-1-3.5-1.4-5.3-4.2-19.9,2.6-43.1,19.7-60.2,7.7-7.7,16.6-13.4,25.9-16.8.4-.1.7-.3,1.1-.4,3.1-1.1,6.3-2,9.5-2.6,0,.7,0,1.4,0,2.1,0,.1,0,.3,0,.4s0,.3,0,.4c0,.7,0,1.4,0,2.1h0c0,.8.1,1.5.3,2.2.7,4.2,2.3,8.1,4.7,11.4,1.8,2.6,4.1,4.9,6.7,6.7,3.2,2.3,7,3.9,11.1,4.7.8.1,1.6.3,2.5.4.8,0,1.6.1,2.4.1h.4c.8,0,1.6,0,2.4-.1Z"/>
      <path class="st0" d="M87.5,83.3c-.2.7-.4,1.3-.6,2,.2.7.4,1.4.6,2-.7-.2-1.3-.4-2-.6-.4,0-.7-.2-1.1-.3-.1-.4-.2-.7-.3-1.1h0c-.2-.7-.4-1.3-.6-2,.7.2,1.3.4,2,.6.7-.2,1.3-.4,2-.6Z"/>
      <path class="st1" d="M149.9,68.1c-7.7,7.7-16.7,13.4-26,16.8-.3.1-.7.3-1,.4h0s0,0,0,0c-3.1,1.1-6.3,2-9.5,2.6,0-.7.1-1.4.1-2.1,0-.1,0-.3,0-.4s0-.3,0-.4c0-.7,0-1.4,0-2.1,0-.7-.2-1.5-.3-2.2-.7-4.2-2.4-8-4.7-11.4-1.8-2.6-4.1-4.9-6.7-6.7-3.2-2.3-7-3.9-11.1-4.7-.8-.1-1.6-.3-2.5-.4h0c-.8,0-1.6-.1-2.4-.1h-.4c-.8,0-1.6,0-2.4.1.6-3.1,1.5-6.3,2.6-9.4t0,0c0-.4.2-.7.4-1,3.4-9.3,9.1-18.2,16.8-25.9C119.8,3.8,142.9-3,162.9,1.3c1.8.4,3.6.8,5.3,1.4.6,1.8,1,3.5,1.4,5.3,4.2,19.9-2.5,43-19.6,60.1Z"/>
    </g>
    <g>
      <path class="st1" d="M88.1,57.4c-.8,0-1.6-.1-2.4-.1h-.4c-.8,0-1.6,0-2.4.1-.9,0-1.7.2-2.5.4-4.1.7-7.8,2.3-11.1,4.7-2.6,1.8-4.9,4.1-6.7,6.7-2.3,3.3-4,7.2-4.7,11.4-.1.7-.2,1.5-.3,2.2,0,.7,0,1.4,0,2.1,0,.1,0,.3,0,.4s0,.3,0,.4c0,.7,0,1.4,0,2.1-3.2-.6-6.4-1.5-9.5-2.6-.4-.1-.7-.2-1.1-.4-9.3-3.4-18.2-9.1-25.9-16.8C4,51-2.8,27.9,1.5,8c.4-1.8.8-3.6,1.4-5.3,1.8-.6,3.5-1,5.3-1.4,19.9-4.2,43.1,2.6,60.2,19.7,7.7,7.7,13.3,16.6,16.8,25.9.1.4.3.7.4,1.1,1.1,3.1,2,6.3,2.6,9.4Z"/>
      <path class="st1" d="M169.5,162.6c-.4,1.8-.8,3.6-1.4,5.3-1.7.6-3.5,1-5.3,1.4-19.9,4.2-43.1-2.6-60.2-19.7-7.7-7.7-13.3-16.6-16.7-25.9-.1-.3-.3-.7-.4-1h0c-1.1-3.2-2-6.4-2.6-9.5.8,0,1.6.1,2.4.1h.4c.8,0,1.6,0,2.4-.1.8,0,1.7-.2,2.5-.4,4.1-.7,7.9-2.4,11.1-4.7,2.6-1.9,4.9-4.1,6.7-6.7,2.4-3.3,4-7.2,4.7-11.3.1-.7.2-1.5.3-2.2,0-.7.1-1.4.1-2.1,0-.1,0-.3,0-.4s0-.3,0-.4c0-.7,0-1.4,0-2.1,3.2.6,6.4,1.5,9.5,2.6h0c.3.1.7.2,1,.4,9.3,3.4,18.2,9,26,16.8,17.1,17.1,23.9,40.2,19.6,60.1Z"/>
    </g>
    <g>
      <path class="st0" d="M87.4,64.9c-.6,0-1.1,0-1.7,0h-.3c-.6,0-1.2,0-1.7,0-.6,0-1.2.2-1.8.3-3,.5-5.7,1.7-8.1,3.4-1.9,1.3-3.6,3-4.9,4.9-1.7,2.4-2.9,5.2-3.4,8.3-.1.5-.2,1.1-.2,1.6,0,.5,0,1,0,1.6,0,.1,0,.2,0,.3s0,.2,0,.3c0,.5,0,1,0,1.5-2.3-.4-4.6-1.1-6.9-1.9-.3,0-.5-.2-.8-.3-6.8-2.5-13.3-6.6-18.9-12.2-12.5-12.5-17.5-29.4-14.4-43.9.3-1.3.6-2.6,1-3.9,1.3-.4,2.6-.8,3.9-1,14.6-3.1,31.4,1.9,43.9,14.4,5.6,5.6,9.7,12.1,12.2,18.9.1.3.2.5.3.8.8,2.3,1.4,4.6,1.9,6.9Z"/>
      <path class="st0" d="M146.8,141.7c-.3,1.3-.6,2.6-1,3.9-1.3.4-2.6.7-3.9,1-14.6,3.1-31.4-1.9-43.9-14.4-5.6-5.6-9.7-12.1-12.2-18.9-.1-.2-.2-.5-.3-.7h0c-.8-2.3-1.5-4.6-1.9-7,.6,0,1.1,0,1.7,0h.3c.6,0,1.2,0,1.8,0,.6,0,1.2-.2,1.8-.3,3-.5,5.7-1.7,8.1-3.4,1.9-1.4,3.6-3,4.9-4.9,1.7-2.4,2.9-5.2,3.5-8.3,0-.5.2-1.1.2-1.6,0-.5,0-1,0-1.6,0-.1,0-.2,0-.3s0-.2,0-.3c0-.5,0-1,0-1.6,2.3.4,4.6,1.1,6.9,1.9h0c.2,0,.5.2.7.3,6.8,2.5,13.3,6.6,19,12.2,12.5,12.5,17.4,29.3,14.3,43.9Z"/>
    </g>
    <g>
      <path class="st0" d="M105.9,87.2c0-.6,0-1.1,0-1.7v-.3c0-.6,0-1.2,0-1.7,0-.6-.2-1.2-.3-1.8-.5-3-1.7-5.7-3.4-8.1-1.3-1.9-3-3.6-4.9-4.9-2.4-1.7-5.2-2.9-8.3-3.4-.5-.1-1.1-.2-1.6-.2-.5,0-1,0-1.6,0-.1,0-.2,0-.3,0s-.2,0-.3,0c-.5,0-1,0-1.5,0,.4-2.3,1.1-4.6,1.9-6.9,0-.3.2-.5.3-.8,2.5-6.8,6.6-13.3,12.2-18.9,12.5-12.5,29.4-17.5,43.9-14.4,1.3.3,2.6.6,3.9,1,.4,1.3.8,2.6,1,3.9,3.1,14.6-1.9,31.4-14.4,43.9-5.6,5.6-12.1,9.7-18.9,12.2-.3.1-.5.2-.8.3-2.3.8-4.6,1.4-6.9,1.9Z"/>
      <path class="st0" d="M29.1,146.6c-1.3-.3-2.6-.6-3.9-1-.4-1.3-.7-2.6-1-3.9-3.1-14.6,1.9-31.4,14.4-43.9,5.6-5.6,12.1-9.7,18.9-12.2.2-.1.5-.2.7-.3h0c2.3-.8,4.6-1.5,6.9-1.9,0,.6,0,1.1,0,1.7v.3c0,.6,0,1.2,0,1.8,0,.6.2,1.2.3,1.8.5,3,1.7,5.7,3.4,8.1,1.4,1.9,3,3.6,4.9,4.9,2.4,1.7,5.2,2.9,8.3,3.5.5,0,1.1.2,1.6.2.5,0,1,0,1.6,0,.1,0,.2,0,.3,0s.2,0,.3,0c.5,0,1,0,1.6,0-.4,2.3-1.1,4.6-1.9,6.9h0c0,.3-.2.5-.3.8-2.5,6.8-6.6,13.3-12.2,19-12.5,12.5-29.3,17.4-43.9,14.3Z"/>
    </g>
    <path class="st1" d="M94.4,85.3s0,0,0,.1c0,.2,0,.5,0,.7,0,.2,0,.5,0,.7-.2,1.3-.8,2.5-1.5,3.6-.6.8-1.3,1.5-2.1,2.1-1,.7-2.2,1.2-3.5,1.5-.3,0-.5,0-.8.1-.3,0-.5,0-.8,0h-.1c-.3,0-.5,0-.8,0-.3,0-.5,0-.8-.1-1.3-.2-2.5-.7-3.5-1.5-.8-.6-1.6-1.3-2.1-2.1-.8-1.1-1.3-2.3-1.5-3.6,0-.2,0-.5,0-.7h0c0-.2,0-.5,0-.7,0,0,0,0,0-.1s0,0,0-.1c0-.2,0-.5,0-.7,0-.2,0-.5,0-.7.2-1.3.8-2.6,1.5-3.6.6-.8,1.3-1.5,2.1-2.1,1-.7,2.2-1.2,3.5-1.5.3,0,.5,0,.8-.1.2,0,.5,0,.8,0h.1c.3,0,.5,0,.8,0h0c.3,0,.5,0,.8.1,1.3.2,2.5.7,3.5,1.5.8.6,1.5,1.3,2.1,2.1.8,1.1,1.3,2.3,1.5,3.6,0,.2,0,.5,0,.7,0,.2,0,.5,0,.7,0,0,0,0,0,.1Z"/>
    <path class="st1" d="M85.5,47.2c-21,0-38.1,17-38.1,38s17,38.1,38.1,38.1,38-17,38-38.1-17-38-38-38ZM85.5,112.5c-15,0-27.2-12.2-27.2-27.2s12.2-27.2,27.2-27.2,27.2,12.2,27.2,27.2-12.2,27.2-27.2,27.2Z"/>
  </g>
</svg>