<?xml version="1.0" encoding="UTF-8"?>
<svg id="Layer_1" xmlns="http://www.w3.org/2000/svg" version="1.1" viewBox="0 0 777.4 600.2">
  <!-- Generator: Adobe Illustrator 29.5.1, SVG Export Plug-In . SVG Version: 2.1.0 Build 141)  -->
  <g id="_x31_CHnMp.tif">
    <path d="M777.4,19.5l-19,21c4.3,1.7,8.7-.8,13-.5.6.6-1.5,10.8-2.2,11.7-2.2,2.7-25.1,11.4-29.7,14.2l7.5,2h14.5c-.6,3.8-2.1,15.8-5.2,17.3l-41.7,6.7c-1.1,3.5,2.4,3.6,5.6,3.9,10.1,1,20.4-1.1,30.4,1.1-2.5,7.2-4.1,15.3-7.5,22h-45c-.2,0-1.6,1.3-1.5,2l42,8c.2,1.2-.2,1.9-.6,2.9s-8.3,14.5-8.9,15-1.1,1-2,1c-15.4-.4-31.9-6.1-47-7s-12.8.5-13.5,1c-1.9,1.5.6,1.7,1.4,2.1,15.5,7,34.4,10.6,50.1,17.8,1.1,1,0,1.7-.5,2.6-.8,1.5-8.6,12.8-9.3,13.2-1.3.8-3.4,0-4.8-.3-17.9-3.7-40.5-14.9-57.7-17.3s-5.3-.2-8.2.8l62.9,28c1.4,1.9-10.5,13.6-11.1,16.9l-73.6-28.7-7.2,1.8,70.9,33c1.2,1.7-6.8,12.1-8,14.5h-2c0,0-77.9-30.1-77.9-30.1-2.4-1.1-12.5.2-7.8,2.8l73.7,33.2c1.4.9,1,1.3.5,2.5-.7,1.9-9.3,14.6-12.5,11.6l-82.4-35.6-8.5-.9,80.5,46.9c1.2,1.8-7.6,9.1-8.5,9.5-1.7.8-3.3.7-5,0l-91.9-42.1-7,.6,89.9,53.9c-4.5.8-13,8.4-17,7.6l-89.2-44.7-6.7-.8,84.8,51c1.8,3.1-5.3,6.5-6.9,8.4l-103.9-46.5,4.1,4.4,83.8,50.5c1.1,1.5-9.5,8.8-11.3,8.7s-3.1-1.1-4.3-1.6c-33.8-13.2-67.5-33.6-101.2-47.6l-6-.5,101.9,55.9c.4.5.1,1.4-.6,2.1-2.6,2.3-12.8,8.3-16.4,6.4l-114.9-50.1-6,.6,105.9,60.4c1.2.8,1.4,1.2.6,2.5s-12.5,9.4-14.5,7.5l-121.6-54.3-5.3-.2,1.7,2.8,109.2,59.6,1,1.5c-6.8,1.4-12.7,8.7-20,6.5l-122.9-54-7,.5,2.3,3.2c33.4,17.2,67.3,33.7,100.6,51.2,4.7,2.5,11.6,5.6,15.7,8.3s1.8-.1,1.3,2.2c-8.2,2-15.2,7.9-23.2,9.8l-116.7-52.3-12,.6,113.3,63,1.6,1.4c0,1.3-21,10.6-23.2,10.3l-121.7-50.2-9.9-1.5,111.9,60.9c.4,1.7-.5,2-1.5,3-1.8,1.8-20.6,14.9-22,15l-121.4-50.4c-3-1.3-6,.3-9,.5l116.4,66.9c1.1,1,.9,1.2-.2,2.1-1.7,1.5-15.4,12.1-16.4,12.4s-1.7.3-2.7-.2l-129.3-49.6-7.8-.7,118.9,69c.4,1.5-.1,2.3-.9,3.5s-11.7,12-12.5,12.5-1.7,1.2-2.9.9l-138-47-4.5,1.6,123.4,65.4c1.2,1.2,0,1.7-.5,2.5-4.8,6.9-11.5,12.8-16,20l-154.3-55.5L0,600.2v-42.4c23.3-27.3,47.4-54,74-78.1-1.8-56.9-6.1-113.7-8-170.6-.1-3.2-2.6-7,0-10l35-21.5-3.5,189.8c3.8-5,16.8-12.5,17.5-18.4-.8-59.5-4.2-118.8-4.8-178.1l31.7-23.2-4,183.8,16.8-16.7c-2.6-56.8-3.7-113.8-5.9-170.6l.3-1.3c10.9-8.3,21.9-18.2,35.7-21.2l-4.5,170.8c2.8-3.3,15.9-8.1,16.5-11.5,1.6-8.4-.5-23.1-1-31.9-.4-44.7-3.3-89.4-3.8-134.2,4.9-1.5,31.2-19.7,33.8-17.1l-3.5,164.8c2.8-2.4,8.9-5.2,11.1-7.9,3.3-4.1.5-9.1.4-13.5-1.1-46.7-1.7-93.2-2.9-139.9,0-2.5-1.9-5.3,0-7l34-13.5-6.5,158.8,19.3-14.2.3-1.3-10.1-143.9c0-.9.3-1.5,1-2,1-.8,22.2-6.8,24.8-7.2s2.8-.4,4.3-.2c-.1,3.5.2,7,0,10.5-1.8,30.9-1.4,61.9-1.9,92.9-.2,12.8-2.8,27.1-1,39.9s-.4,2,1.5,1.5,13.5-7.3,14.1-7.9c1-1.1,1.6-1.9,1.5-3.5l-7.9-135.8.8-1.1,26-7.5,1.5,134.8c4-4.3,17.1-6.4,17.6-12.5-4.5-41.1-10.7-82-13.9-123.2l32.8-7.1-3,124.8,16.9-4.1-9-123.3,23-3.4,3.5,119.8c3.8-3.2,15.3-6.2,15.6-11.5l-13.1-110.4,27-2,1.5,108.9c4.5-3.1,12.8-4.9,16.9-8.1s1.6-1.5,1.7-3.4l-15-96c-.2-1.2-.1-2.1.9-2.9,3.5-2.5,20-3.6,25-6.5l2,100.9c.6.6,15.3-4,15.8-5.6-2.3-32.1-8-64.1-10.8-96.2l22.9-5c-.3,32,.2,64,1,95.9,1.2,1.2,14.6-6.5,17.1-7.6l-13-89.2,28-4-.5,86.9,17.6-9.6-13.1-80.3,30-4c-.8,20.5-1.3,41-2,61.5-.1,4.3-1.7,8.2-1,13s-.5,1.8,1.5,1.5,13.1-5.4,13.5-7.5l-4.9-72.3c3.2-.3,20.5-5.4,21.9-4.1l-1,71.9c1.6-.6,9.5-1.6,9.9-2.1,2.4-2.8-3.1-65-.4-73.8l20.5-7.9c-1,12.1-.6,24.3-1,36.5s-2.3,19.5-1,28.9-.4,2,1.5,1.5,5.3-3.8,7.6-4.6v-65.2c0,0,22.9-8.1,22.9-8.1l-3.5,58.9c2.3-2.8,12-7.5,12.5-10.5l-2.6-52.4,20.5-11c-.6,10.5-.5,21-.9,31.5-.3,6-1.5,11.5-1,18s-.6,3.3,1.5,2.5,6.2-6,6.5-7.5c-.3-15.1-1.6-30.5-1.5-45.4l19.5-13-.5,47.9c1.8-3.3,7.9-10.3,8.5-13.5,1.2-6.4-1.4-35.8.2-38.2s13.7-7.9,15.8-8.1v32c1.8-1.6,6.7-3.9,8-5.5,3.6-4.4-2.9-26-1.5-32.4,2.3-1.7,13.1-10.4,15-10s1.4,1.6,1.5,2.5c.4,2.5.3,17.8,1,18.5,1.1-.2,3.2.4,3.9-.1,1.4-1.2,2.4-27.8,3.6-31.8,1.4-1.3,9.3-7.3,10.5-6,.1,3.5-.2,7,0,10.5s-.7,2.7,1,2.5l14-24v19.5Z" fill="white"/>
  </g>
</svg>